<svg width="28" height="17" viewBox="0 0 28 17" fill="none" xmlns="http://www.w3.org/2000/svg">
    <path d="M12.2293 16L10.3373 11.138H4.11126L2.24126 16H0.239258L6.37726 0.226H8.15926L14.2753 16H12.2293ZM7.98326 4.626C7.93926 4.50867 7.86592 4.296 7.76326 3.988C7.66059 3.68 7.55792 3.36467 7.45526 3.042C7.36726 2.70467 7.29393 2.448 7.23526 2.272C7.16192 2.56533 7.08126 2.866 6.99326 3.174C6.91992 3.46733 6.83926 3.73867 6.75126 3.988C6.67792 4.23733 6.61192 4.45 6.55326 4.626L4.77126 9.378H9.74326L7.98326 4.626ZM22.7264 1.81C21.8904 1.81 21.135 1.95667 20.4604 2.25C19.7857 2.52867 19.2137 2.94667 18.7444 3.504C18.275 4.04667 17.9157 4.714 17.6664 5.506C17.417 6.28333 17.2924 7.16333 17.2924 8.146C17.2924 9.43667 17.4904 10.5587 17.8864 11.512C18.297 12.4653 18.8984 13.1987 19.6904 13.712C20.497 14.2253 21.5017 14.482 22.7044 14.482C23.3937 14.482 24.0464 14.4233 24.6624 14.306C25.2784 14.1887 25.8797 14.042 26.4664 13.866V15.582C25.8797 15.802 25.271 15.9633 24.6404 16.066C24.0244 16.1687 23.2837 16.22 22.4184 16.22C20.8197 16.22 19.485 15.89 18.4144 15.23C17.3437 14.57 16.537 13.6313 15.9944 12.414C15.4664 11.1967 15.2024 9.76667 15.2024 8.124C15.2024 6.936 15.3637 5.85067 15.6864 4.868C16.0237 3.88533 16.5077 3.03467 17.1384 2.316C17.7837 1.59733 18.5757 1.04733 19.5144 0.665999C20.453 0.269999 21.531 0.0719992 22.7484 0.0719992C23.555 0.0719992 24.3324 0.152666 25.0804 0.313999C25.8284 0.475333 26.4957 0.702666 27.0824 0.995999L26.2904 2.668C25.8064 2.448 25.2637 2.25 24.6624 2.074C24.0757 1.898 23.4304 1.81 22.7264 1.81Z"
          fill="url(#paint0_linear_2_620)"/>
    <defs>
        <linearGradient id="paint0_linear_2_620" x1="14" y1="-10" x2="14" y2="26" gradientUnits="userSpaceOnUse">
            <stop stop-color="#ED0E98"/>
            <stop offset="1" stop-color="#FE5A2D"/>
        </linearGradient>
    </defs>
</svg>
