<svg width="10" height="10" viewBox="0 0 10 10" fill="none" xmlns="http://www.w3.org/2000/svg">
    <path d="M5 10C3.67392 10 2.40215 9.47322 1.46447 8.53553C0.526784 7.59785 -2.76522e-07 6.32608 -2.18557e-07 5C-1.60592e-07 3.67392 0.526784 2.40215 1.46447 1.46447C2.40215 0.526784 3.67392 -2.76522e-07 5 -2.18557e-07C6.32608 -1.60592e-07 7.59785 0.526784 8.53553 1.46447C9.47322 2.40215 10 3.67392 10 5C10 6.32608 9.47322 7.59785 8.53553 8.53553C7.59785 9.47322 6.32608 10 5 10ZM3.24812 6.31C3.21828 6.33883 3.19447 6.37331 3.17809 6.41144C3.16172 6.44956 3.15309 6.49057 3.15273 6.53206C3.15237 6.57356 3.16028 6.6147 3.17599 6.65311C3.19171 6.69152 3.21491 6.72641 3.24425 6.75575C3.27359 6.78509 3.30848 6.80829 3.34689 6.82401C3.38529 6.83972 3.42644 6.84763 3.46794 6.84727C3.50943 6.8469 3.55044 6.83828 3.58856 6.82191C3.62669 6.80553 3.66117 6.78172 3.69 6.75188L6.25 4.19187L6.25 5.92187C6.25 6.00476 6.28292 6.08424 6.34153 6.14285C6.40013 6.20145 6.47962 6.23437 6.5625 6.23437C6.64538 6.23437 6.72487 6.20145 6.78347 6.14285C6.84208 6.08424 6.875 6.00476 6.875 5.92187L6.875 3.4375C6.875 3.35462 6.84208 3.27513 6.78347 3.21653C6.72487 3.15792 6.64538 3.125 6.5625 3.125L4.07812 3.125C3.99524 3.125 3.91576 3.15792 3.85715 3.21653C3.79855 3.27513 3.76562 3.35462 3.76562 3.4375C3.76562 3.52038 3.79855 3.59987 3.85715 3.65847C3.91576 3.71708 3.99524 3.75 4.07812 3.75L5.80812 3.75L3.24812 6.31Z" fill="#6C6CD9"/>
</svg>
