<svg width="24" height="24" viewBox="0 0 24 24" fill="none" xmlns="http://www.w3.org/2000/svg">
    <path d="M10.5 4.49995C10.5 3.62474 10.1523 2.78537 9.53345 2.1665C8.91458 1.54763 8.07521 1.19995 7.2 1.19995C6.32478 1.19995 5.48541 1.54763 4.86654 2.1665C4.24767 2.78537 3.9 3.62474 3.9 4.49995C3.9 5.37517 4.24767 6.21453 4.86654 6.8334C5.48541 7.45227 6.32478 7.79995 7.2 7.79995C8.07521 7.79995 8.91458 7.45227 9.53345 6.8334C10.1523 6.21453 10.5 5.37517 10.5 4.49995ZM5.1 4.49995C5.1 4.22418 5.15432 3.9511 5.25985 3.69632C5.36539 3.44153 5.52007 3.21003 5.71507 3.01503C5.91008 2.82002 6.14158 2.66534 6.39636 2.5598C6.65115 2.45427 6.92422 2.39995 7.2 2.39995C7.47577 2.39995 7.74885 2.45427 8.00363 2.5598C8.25842 2.66534 8.48992 2.82002 8.68492 3.01503C8.87993 3.21003 9.03461 3.44153 9.14015 3.69632C9.24568 3.9511 9.3 4.22418 9.3 4.49995C9.3 5.05691 9.07875 5.59105 8.68492 5.98488C8.2911 6.3787 7.75695 6.59995 7.2 6.59995C6.64304 6.59995 6.1089 6.3787 5.71507 5.98488C5.32125 5.59105 5.1 5.05691 5.1 4.49995ZM3 8.99995H8.0196C7.8228 9.37195 7.6764 9.77515 7.59 10.2H3C2.84087 10.2 2.68826 10.2632 2.57573 10.3757C2.46321 10.4882 2.4 10.6408 2.4 10.8V11.4C2.4 12.912 3.7188 14.5368 6.1152 14.916C5.7288 15.18 5.4072 15.5316 5.178 15.9408C2.646 15.2556 1.2 13.3044 1.2 11.4V10.8C1.2 10.3226 1.38964 9.86473 1.7272 9.52716C2.06477 9.18959 2.52261 8.99995 3 8.99995ZM9.4548 8.99995C10.0596 8.26795 10.9752 7.79995 12 7.79995C12.7186 7.7987 13.418 8.03258 13.9913 8.46591C14.5646 8.89924 14.9803 9.50823 15.1752 10.2C15.3489 10.8173 15.3391 11.472 15.147 12.0839C14.955 12.6958 14.5889 13.2386 14.0936 13.646C13.5983 14.0534 12.995 14.3078 12.3576 14.3782C11.7201 14.4486 11.0759 14.3319 10.5036 14.0424C10.063 13.8181 9.67837 13.4977 9.37821 13.1048C9.07805 12.712 8.86999 12.2567 8.76942 11.7726C8.66885 11.2885 8.67834 10.7881 8.79717 10.3082C8.91601 9.82824 9.14117 9.38116 9.456 8.99995H9.4548ZM10.1028 10.2C9.98461 10.4493 9.91668 10.7194 9.90289 10.9949C9.8891 11.2705 9.92972 11.5461 10.0224 11.8059C10.1151 12.0658 10.2581 12.3048 10.4432 12.5094C10.6283 12.714 10.8519 12.8802 11.1012 12.9984C11.3505 13.1165 11.6206 13.1845 11.8962 13.1983C12.1717 13.2121 12.4473 13.1714 12.7072 13.0787C12.967 12.986 13.2061 12.843 13.4107 12.6579C13.6153 12.4728 13.7814 12.2493 13.8996 12C14.1383 11.4963 14.1671 10.9185 13.9798 10.3936C13.7924 9.86864 13.4042 9.43965 12.9006 9.20095C12.397 8.96226 11.8191 8.93341 11.2942 9.12076C10.7693 9.30811 10.3403 9.69631 10.1016 10.2H10.1028ZM18.822 15.9408C18.5934 15.5313 18.2725 15.1808 17.8848 14.9172C20.28 14.5368 21.6 12.9108 21.6 11.4V10.8C21.6 10.6408 21.5368 10.4882 21.4243 10.3757C21.3117 10.2632 21.1591 10.2 21 10.2H16.41C16.3252 9.78155 16.181 9.37745 15.9816 8.99995H21C21.4774 8.99995 21.9352 9.18959 22.2728 9.52716C22.6104 9.86473 22.8 10.3226 22.8 10.8V11.4C22.8 13.3044 21.3528 15.2544 18.822 15.9408ZM17.3844 16.0452C17.0569 15.7576 16.6358 15.5994 16.2 15.6H7.8C7.56344 15.5993 7.32909 15.6454 7.11042 15.7357C6.89175 15.8259 6.69306 15.9585 6.52579 16.1257C6.35852 16.293 6.22596 16.4917 6.13572 16.7104C6.04549 16.929 5.99936 17.1634 6 17.4V18C6 20.3652 8.232 22.8 12 22.8C15.768 22.8 18 20.3652 18 18V17.4C18 16.86 17.7624 16.3752 17.3844 16.044V16.0452ZM7.2 17.4C7.2 17.2408 7.26321 17.0882 7.37573 16.9757C7.48826 16.8632 7.64087 16.8 7.8 16.8H16.2C16.3591 16.8 16.5117 16.8632 16.6243 16.9757C16.7368 17.0882 16.8 17.2408 16.8 17.4V18C16.8 19.7256 15.0816 21.6 12 21.6C8.9184 21.6 7.2 19.7256 7.2 18V17.4ZM16.8 1.19995C17.6752 1.19995 18.5146 1.54763 19.1335 2.1665C19.7523 2.78537 20.1 3.62474 20.1 4.49995C20.1 5.37517 19.7523 6.21453 19.1335 6.8334C18.5146 7.45227 17.6752 7.79995 16.8 7.79995C15.9248 7.79995 15.0854 7.45227 14.4665 6.8334C13.8477 6.21453 13.5 5.37517 13.5 4.49995C13.5 3.62474 13.8477 2.78537 14.4665 2.1665C15.0854 1.54763 15.9248 1.19995 16.8 1.19995ZM16.8 2.39995C16.243 2.39995 15.7089 2.6212 15.3151 3.01503C14.9212 3.40885 14.7 3.943 14.7 4.49995C14.7 5.05691 14.9212 5.59105 15.3151 5.98488C15.7089 6.3787 16.243 6.59995 16.8 6.59995C17.357 6.59995 17.8911 6.3787 18.2849 5.98488C18.6788 5.59105 18.9 5.05691 18.9 4.49995C18.9 3.943 18.6788 3.40885 18.2849 3.01503C17.8911 2.6212 17.357 2.39995 16.8 2.39995Z"
          fill="white"/>
</svg>
