<svg width="24" height="24" viewBox="0 0 24 24" fill="none" xmlns="http://www.w3.org/2000/svg">
    <path d="M19.6151 13C19.6586 12.6684 19.682 12.3345 19.6851 12C19.682 11.6656 19.6586 11.3316 19.6151 11L21.7801 9.30503C21.8778 9.23036 21.9446 9.12226 21.9677 9.00141C21.9908 8.88057 21.9685 8.75547 21.9051 8.65003L19.8551 5.09503C19.7957 4.9884 19.6994 4.90717 19.5842 4.86665C19.4691 4.82612 19.3431 4.82911 19.2301 4.87503L16.6751 5.90503C16.1434 5.49928 15.562 5.16321 14.9451 4.90503L14.5601 2.19003C14.5431 2.0699 14.483 1.96003 14.391 1.88092C14.299 1.8018 14.1814 1.75884 14.0601 1.76003H9.95006C9.82873 1.75884 9.71111 1.8018 9.61912 1.88092C9.52712 1.96003 9.46704 2.0699 9.45006 2.19003L9.06506 4.90503C8.4473 5.1616 7.86571 5.49778 7.33506 5.90503L4.77006 4.87503C4.65698 4.82911 4.53101 4.82612 4.41588 4.86665C4.30076 4.90717 4.20443 4.9884 4.14506 5.09503L2.09506 8.65003C2.03166 8.75547 2.00936 8.88057 2.03242 9.00141C2.05549 9.12226 2.12229 9.23036 2.22006 9.30503L4.38006 11C4.33667 11.3317 4.31329 11.6656 4.31006 12C4.31312 12.3345 4.3365 12.6684 4.38006 13L2.22006 14.695C2.12229 14.7697 2.05549 14.8778 2.03242 14.9987C2.00936 15.1195 2.03166 15.2446 2.09506 15.35L4.14506 18.905C4.20443 19.0117 4.30076 19.0929 4.41588 19.1334C4.53101 19.1739 4.65698 19.171 4.77006 19.125L7.32506 18.095C7.85671 18.5008 8.4381 18.8369 9.05506 19.095L9.44006 21.81C9.45704 21.9302 9.51712 22.04 9.60912 22.1192C9.70111 22.1983 9.81873 22.2412 9.94006 22.24H14.0401C14.1614 22.2412 14.279 22.1983 14.371 22.1192C14.463 22.04 14.5231 21.9302 14.5401 21.81L14.9251 19.095C15.5428 18.8385 16.1244 18.5023 16.6551 18.095L19.2101 19.125C19.3231 19.171 19.4491 19.1739 19.5642 19.1334C19.6794 19.0929 19.7757 19.0117 19.8351 18.905L21.8851 15.35C21.9485 15.2446 21.9708 15.1195 21.9477 14.9987C21.9246 14.8778 21.8578 14.7697 21.7601 14.695L19.6151 13ZM12.0001 15.59C11.2898 15.591 10.5952 15.3813 10.0042 14.9874C9.41317 14.5936 8.95225 14.0332 8.67977 13.3773C8.40728 12.7214 8.33547 11.9995 8.47343 11.3027C8.61139 10.606 8.9529 9.96586 9.45478 9.46329C9.95665 8.96072 10.5963 8.61831 11.2928 8.47938C11.9894 8.34046 12.7115 8.41126 13.3677 8.68283C14.024 8.9544 14.585 9.41454 14.9797 10.005C15.3744 10.5955 15.5851 11.2898 15.5851 12C15.5857 12.4712 15.4935 12.938 15.3136 13.3735C15.1337 13.809 14.8698 14.2048 14.5368 14.5382C14.2038 14.8717 13.8084 15.1362 13.3731 15.3167C12.9379 15.4971 12.4713 15.59 12.0001 15.59V15.59Z"
          stroke="white" stroke-width="1.5" stroke-linecap="round" stroke-linejoin="round"/>
</svg>
